SplineFontDB: 3.0
FontName: Nimbo
FullName: Nimbo
FamilyName: Nimbo
Weight: Regular
Copyright: Created by trashman with FontForge 2.0 (http://fontforge.sf.net)
UComments: "2010-10-30: Created." 
Version: 0.1
ItalicAngle: 0
UnderlinePosition: -100
UnderlineWidth: 50
Ascent: 800
Descent: 200
LayerCount: 3
Layer: 0 0 "Back"  1
Layer: 1 0 "Fore"  0
Layer: 2 0 "backup"  0
NeedsXUIDChange: 1
XUID: [1021 658 797806517 11461781]
OS2Version: 0
OS2_WeightWidthSlopeOnly: 0
OS2_UseTypoMetrics: 1
CreationTime: 1288472788
ModificationTime: 1288491312
OS2TypoAscent: 0
OS2TypoAOffset: 1
OS2TypoDescent: 0
OS2TypoDOffset: 1
OS2TypoLinegap: 0
OS2WinAscent: 0
OS2WinAOffset: 1
OS2WinDescent: 0
OS2WinDOffset: 1
HheadAscent: 0
HheadAOffset: 1
HheadDescent: 0
HheadDOffset: 1
OS2Vendor: 'PfEd'
MarkAttachClasses: 1
DEI: 91125
Encoding: UnicodeBmp
UnicodeInterp: none
NameList: Adobe Glyph List
DisplaySize: -48
AntiAlias: 1
FitToEm: 1
WinInfo: 60 12 4
BeginChars: 65536 63

StartChar: a
Encoding: 97 97 0
Width: 194
VWidth: 0
Flags: HW
LayerCount: 3
Fore
SplineSet
47 262 m 0
 47 290 69 312 97 312 c 0
 125 312 147 290 147 262 c 0
 147 234 125 212 97 212 c 0
 69 212 47 234 47 262 c 0
EndSplineSet
EndChar

StartChar: b
Encoding: 98 98 1
Width: 194
VWidth: 0
Flags: HW
LayerCount: 3
Fore
SplineSet
47 262 m 0
 47 290 69 312 97 312 c 0
 125 312 147 290 147 262 c 0
 147 234 125 212 97 212 c 0
 69 212 47 234 47 262 c 0
EndSplineSet
EndChar

StartChar: c
Encoding: 99 99 2
Width: 397
VWidth: 0
Flags: HW
HStem: -11 48<177.453 312.967> 344 36<169.765 287.232>
VStem: 25 84<112.579 264.08>
LayerCount: 3
Fore
SplineSet
244 380 m 0
 282 380 368 368 368 332 c 0
 368 309 350 300 338 300 c 0
 312 300 297 322 282 330 c 0
 262 341 247 344 229 344 c 0
 152 344 109 275 109 198 c 0
 109 107 173 37 243 37 c 0
 314 37 335 74 351 74 c 0
 361 74 363 67 363 61 c 0
 363 53 353 37 338 26 c 0
 304 1 263 -11 222 -11 c 0
 111 -11 25 70 25 178 c 0
 25 292 126 380 244 380 c 0
EndSplineSet
EndChar

StartChar: d
Encoding: 100 100 3
Width: 469
VWidth: 0
Flags: HW
HStem: -9 37<162.439 265.716> 345 21<191.755 283.86>
VStem: 30 78<84.8207 251.299> 326 80<401.032 591.938> 332 65<33.0123 51 58.3917 277.891>
LayerCount: 3
Fore
SplineSet
30 161 m 0xf0
 30 276 123 366 226 366 c 0
 254 366 280 359 304 348 c 0
 319 341 324 335 326 335 c 0
 330 335 330 345 330 357 c 2
 330 372 l 2
 330 420 328 503 326 560 c 0
 326 573 323 582 306 591 c 2
 278 606 l 2
 266 612 271 624 279 626 c 0
 323 639 343 645 380 657 c 0
 383 658 393 661 396 661 c 0
 408 661 406 645 406 638 c 0xf0
 406 614 397 513 397 57 c 0xe8
 397 50 397 33 406 33 c 0
 411 33 434 44 437 44 c 0
 444 44 444 32 444 26 c 0
 444 23 443 20 441 19 c 0
 406 3 350 -24 339 -24 c 0
 329 -24 328 -13 328 -2 c 2
 328 51 l 1
 328 51 269 -9 191 -9 c 0
 87 -9 30 62 30 161 c 0xf0
235 345 m 0
 156 345 108 256 108 180 c 0
 108 106 138 28 225 28 c 0
 276 28 332 63 332 95 c 2
 332 220 l 2xe8
 332 299 308 345 235 345 c 0
EndSplineSet
EndChar

StartChar: e
Encoding: 101 101 4
Width: 382
VWidth: 0
Flags: HW
HStem: -9 48<158.88 291.523> 246 20<107.087 273> 357 25<165.922 259.647>
VStem: 23 75<106.236 244.532> 282 71<260.5 326.553>
LayerCount: 3
Fore
SplineSet
221 382 m 0
 300 382 353 320 353 266 c 0
 353 255 353 244 343 244 c 0
 266 244 157 246 114 246 c 0
 98 246 98 225 98 201 c 0
 98 117 141 39 228 39 c 0
 280 39 310 55 341 90 c 0
 345 94 348 95 351 95 c 0
 358 95 360 90 360 84 c 0
 360 78 358 72 356 69 c 0
 330 28 271 -9 206 -9 c 0
 85 -9 23 79 23 186 c 0
 23 291 111 382 221 382 c 0
125 266 m 2
 240 266 l 2
 272 266 282 279 282 306 c 0
 282 342 246 357 214 357 c 0
 144 357 107 293 107 275 c 0
 107 269 109 266 125 266 c 2
EndSplineSet
EndChar

StartChar: f
Encoding: 102 102 5
Width: 194
VWidth: 0
Flags: HW
LayerCount: 3
Fore
SplineSet
47 262 m 0
 47 290 69 312 97 312 c 0
 125 312 147 290 147 262 c 0
 147 234 125 212 97 212 c 0
 69 212 47 234 47 262 c 0
EndSplineSet
EndChar

StartChar: g
Encoding: 103 103 6
Width: 194
VWidth: 0
Flags: HW
LayerCount: 3
Fore
SplineSet
47 262 m 0
 47 290 69 312 97 312 c 0
 125 312 147 290 147 262 c 0
 147 234 125 212 97 212 c 0
 69 212 47 234 47 262 c 0
EndSplineSet
EndChar

StartChar: h
Encoding: 104 104 7
Width: 194
VWidth: 0
Flags: HW
LayerCount: 3
Fore
SplineSet
47 262 m 0
 47 290 69 312 97 312 c 0
 125 312 147 290 147 262 c 0
 147 234 125 212 97 212 c 0
 69 212 47 234 47 262 c 0
EndSplineSet
EndChar

StartChar: i
Encoding: 105 105 8
Width: 233
VWidth: 0
Flags: HWO
LayerCount: 3
Fore
SplineSet
50 347 m 0
 78 357 121 377 132 383 c 0
 137 385 141 387 145 387 c 0
 149 387 152 385 152 380 c 2
 152 81 l 2
 152 49 164 42 184 35 c 0
 206 27 214 24 214 11 c 0
 214 5 209 -2 201 -2 c 0
 178 -2 147 0 120 0 c 0
 98 0 69 -2 51 -2 c 0
 39 -2 24 -1 24 14 c 0
 24 32 42 32 55 38 c 0
 71 45 84 44 84 80 c 2
 84 292 l 2
 84 301 75 307 69 310 c 2
 43 323 l 2
 38 325 36 329 36 332 c 0
 36 338 43 344 50 347 c 0
71 560 m 0
 71 586 92 607 118 607 c 0
 144 607 165 586 165 560 c 0
 165 534 144 513 118 513 c 0
 92 513 71 534 71 560 c 0
EndSplineSet
EndChar

StartChar: j
Encoding: 106 106 9
Width: 194
VWidth: 0
Flags: HW
LayerCount: 3
Fore
SplineSet
47 262 m 0
 47 290 69 312 97 312 c 0
 125 312 147 290 147 262 c 0
 147 234 125 212 97 212 c 0
 69 212 47 234 47 262 c 0
EndSplineSet
EndChar

StartChar: k
Encoding: 107 107 10
Width: 194
VWidth: 0
Flags: HW
LayerCount: 3
Fore
SplineSet
47 262 m 0
 47 290 69 312 97 312 c 0
 125 312 147 290 147 262 c 0
 147 234 125 212 97 212 c 0
 69 212 47 234 47 262 c 0
EndSplineSet
EndChar

StartChar: l
Encoding: 108 108 11
Width: 194
VWidth: 0
Flags: HW
LayerCount: 3
Fore
SplineSet
47 262 m 0
 47 290 69 312 97 312 c 0
 125 312 147 290 147 262 c 0
 147 234 125 212 97 212 c 0
 69 212 47 234 47 262 c 0
EndSplineSet
EndChar

StartChar: m
Encoding: 109 109 12
Width: 194
VWidth: 0
Flags: HW
LayerCount: 3
Fore
SplineSet
47 262 m 0
 47 290 69 312 97 312 c 0
 125 312 147 290 147 262 c 0
 147 234 125 212 97 212 c 0
 69 212 47 234 47 262 c 0
EndSplineSet
EndChar

StartChar: n
Encoding: 110 110 13
Width: 511
VWidth: 0
Flags: HW
HStem: -2 34<28.0124 79.5981 154.193 221.569 293.45 346.807> 337 36<234.464 325.15>
VStem: 84 68<34.0723 299.011> 357 72<42.342 309.427>
LayerCount: 3
Fore
SplineSet
163 391 m 0
 163 383 157 346 156 327 c 0
 155 317 153 305 164 314 c 0
 190 335 251 375 313 375 c 0
 391 375 422 332 424 269 c 0
 426 187 424 74 429 48 c 0
 434 20 484 35 484 12 c 0
 484 3 477 -2 467 -2 c 0
 460 -2 397 0 390 0 c 0
 363 0 326 -2 309 -2 c 0
 299 -2 293 1 293 12 c 0
 293 22 306 26 319 30 c 0
 331 34 343 39 347 42 c 0
 356 49 357 75 357 104 c 2
 357 237 l 2
 357 294 328 335 278 335 c 0
 238 335 213 324 183 305 c 0
 168 295 152 287 152 264 c 2
 152 73 l 2
 152 56 152 39 168 35 c 0
 184 30 222 31 222 12 c 0
 222 0 208 -2 190 -2 c 0
 171 -2 148 0 128 0 c 0
 103 0 74 -2 55 -2 c 0
 37 -2 28 0 28 15 c 0
 28 30 45 29 56 32 c 0
 75 37 82 46 83 64 c 0
 84 86 84 117 84 133 c 2
 84 182 l 2
 84 214 84 244 82 285 c 0
 81 296 82 300 69 309 c 2
 53 320 l 2
 42 328 43 336 56 342 c 0
 86 355 122 377 146 393 c 0
 149 395 153 398 157 398 c 0
 160 398 163 396 163 391 c 0
EndSplineSet
EndChar

StartChar: o
Encoding: 111 111 14
Width: 432
VWidth: 0
Flags: HW
HStem: -12 34<161.602 270.649> 345 29<166.467 261.418>
VStem: 29 72<85.8685 272.067> 326 71<85.0435 283.578>
LayerCount: 3
Fore
SplineSet
215 345 m 0
 139 345 101 260 101 182 c 24
 101 105 136 22 216 22 c 0
 302 22 326 110 326 188 c 0
 326 270 285 345 215 345 c 0
218 374 m 0
 325 374 397 303 397 182 c 0
 397 65 320 -12 212 -12 c 0
 97 -12 29 60 29 181 c 0
 29 297 118 374 218 374 c 0
EndSplineSet
EndChar

StartChar: p
Encoding: 112 112 15
Width: 194
VWidth: 0
Flags: HW
LayerCount: 3
Fore
SplineSet
47 262 m 0
 47 290 69 312 97 312 c 0
 125 312 147 290 147 262 c 0
 147 234 125 212 97 212 c 0
 69 212 47 234 47 262 c 0
EndSplineSet
EndChar

StartChar: q
Encoding: 113 113 16
Width: 194
VWidth: 0
Flags: HW
LayerCount: 3
Fore
SplineSet
47 262 m 0
 47 290 69 312 97 312 c 0
 125 312 147 290 147 262 c 0
 147 234 125 212 97 212 c 0
 69 212 47 234 47 262 c 0
EndSplineSet
EndChar

StartChar: r
Encoding: 114 114 17
Width: 194
VWidth: 0
Flags: HW
LayerCount: 3
Fore
SplineSet
47 262 m 0
 47 290 69 312 97 312 c 0
 125 312 147 290 147 262 c 0
 147 234 125 212 97 212 c 0
 69 212 47 234 47 262 c 0
EndSplineSet
EndChar

StartChar: s
Encoding: 115 115 18
Width: 194
VWidth: 0
Flags: HW
LayerCount: 3
Fore
SplineSet
47 262 m 0
 47 290 69 312 97 312 c 0
 125 312 147 290 147 262 c 0
 147 234 125 212 97 212 c 0
 69 212 47 234 47 262 c 0
EndSplineSet
EndChar

StartChar: t
Encoding: 116 116 19
Width: 318
VWidth: 0
Flags: HW
HStem: -11 48<161.033 268.898> 327 37<150.094 295.993>
VStem: 78 66<53.7001 327>
LayerCount: 3
Fore
SplineSet
303 44 m 0
 303 30 299 27 294 24 c 0
 254 2 226 -11 178 -11 c 0
 128 -11 78 21 78 83 c 0
 78 166 81 304 81 312 c 0
 81 320 81 327 68 327 c 2
 42 327 l 2
 32 327 32 333 32 339 c 0
 32 344 49 358 57 365 c 0
 81 385 110 414 137 439 c 0
 138 440 142 441 143 441 c 0
 147 441 150 434 150 428 c 2
 150 376 l 2
 150 364 151 364 164 364 c 2
 286 364 l 2
 294 364 296 357 296 348 c 0
 296 339 296 327 288 327 c 2
 162 327 l 2
 149 327 146 326 146 315 c 0
 146 303 144 139 144 124 c 0
 144 78 157 37 212 37 c 0
 241 37 264 46 277 54 c 0
 282 57 293 64 295 64 c 0
 302 64 303 54 303 44 c 0
EndSplineSet
EndChar

StartChar: u
Encoding: 117 117 20
Width: 194
VWidth: 0
Flags: HW
LayerCount: 3
Fore
SplineSet
47 262 m 0
 47 290 69 312 97 312 c 0
 125 312 147 290 147 262 c 0
 147 234 125 212 97 212 c 0
 69 212 47 234 47 262 c 0
EndSplineSet
EndChar

StartChar: v
Encoding: 118 118 21
Width: 194
VWidth: 0
Flags: HW
LayerCount: 3
Fore
SplineSet
47 262 m 0
 47 290 69 312 97 312 c 0
 125 312 147 290 147 262 c 0
 147 234 125 212 97 212 c 0
 69 212 47 234 47 262 c 0
EndSplineSet
EndChar

StartChar: w
Encoding: 119 119 22
Width: 194
VWidth: 0
Flags: HW
LayerCount: 3
Fore
SplineSet
47 262 m 0
 47 290 69 312 97 312 c 0
 125 312 147 290 147 262 c 0
 147 234 125 212 97 212 c 0
 69 212 47 234 47 262 c 0
EndSplineSet
EndChar

StartChar: x
Encoding: 120 120 23
Width: 194
VWidth: 0
Flags: HW
LayerCount: 3
Fore
SplineSet
47 262 m 0
 47 290 69 312 97 312 c 0
 125 312 147 290 147 262 c 0
 147 234 125 212 97 212 c 0
 69 212 47 234 47 262 c 0
EndSplineSet
EndChar

StartChar: y
Encoding: 121 121 24
Width: 194
VWidth: 0
Flags: HW
LayerCount: 3
Fore
SplineSet
47 262 m 0
 47 290 69 312 97 312 c 0
 125 312 147 290 147 262 c 0
 147 234 125 212 97 212 c 0
 69 212 47 234 47 262 c 0
EndSplineSet
EndChar

StartChar: z
Encoding: 122 122 25
Width: 194
VWidth: 0
Flags: HW
LayerCount: 3
Fore
SplineSet
47 262 m 0
 47 290 69 312 97 312 c 0
 125 312 147 290 147 262 c 0
 147 234 125 212 97 212 c 0
 69 212 47 234 47 262 c 0
EndSplineSet
EndChar

StartChar: zero
Encoding: 48 48 52
Width: 194
VWidth: 0
Flags: HW
LayerCount: 3
Fore
SplineSet
47 262 m 0
 47 290 69 312 97 312 c 0
 125 312 147 290 147 262 c 0
 147 234 125 212 97 212 c 0
 69 212 47 234 47 262 c 0
EndSplineSet
EndChar

StartChar: one
Encoding: 49 49 53
Width: 194
VWidth: 0
Flags: HW
LayerCount: 3
Fore
SplineSet
47 262 m 0
 47 290 69 312 97 312 c 0
 125 312 147 290 147 262 c 0
 147 234 125 212 97 212 c 0
 69 212 47 234 47 262 c 0
EndSplineSet
EndChar

StartChar: two
Encoding: 50 50 54
Width: 194
VWidth: 0
Flags: HW
LayerCount: 3
Fore
SplineSet
47 262 m 0
 47 290 69 312 97 312 c 0
 125 312 147 290 147 262 c 0
 147 234 125 212 97 212 c 0
 69 212 47 234 47 262 c 0
EndSplineSet
EndChar

StartChar: three
Encoding: 51 51 55
Width: 194
VWidth: 0
Flags: HW
LayerCount: 3
Fore
SplineSet
47 262 m 0
 47 290 69 312 97 312 c 0
 125 312 147 290 147 262 c 0
 147 234 125 212 97 212 c 0
 69 212 47 234 47 262 c 0
EndSplineSet
EndChar

StartChar: four
Encoding: 52 52 56
Width: 194
VWidth: 0
Flags: HW
LayerCount: 3
Fore
SplineSet
47 262 m 0
 47 290 69 312 97 312 c 0
 125 312 147 290 147 262 c 0
 147 234 125 212 97 212 c 0
 69 212 47 234 47 262 c 0
EndSplineSet
EndChar

StartChar: five
Encoding: 53 53 57
Width: 194
VWidth: 0
Flags: HW
LayerCount: 3
Fore
SplineSet
47 262 m 0
 47 290 69 312 97 312 c 0
 125 312 147 290 147 262 c 0
 147 234 125 212 97 212 c 0
 69 212 47 234 47 262 c 0
EndSplineSet
EndChar

StartChar: six
Encoding: 54 54 58
Width: 194
VWidth: 0
Flags: HW
LayerCount: 3
Fore
SplineSet
47 262 m 0
 47 290 69 312 97 312 c 0
 125 312 147 290 147 262 c 0
 147 234 125 212 97 212 c 0
 69 212 47 234 47 262 c 0
EndSplineSet
EndChar

StartChar: seven
Encoding: 55 55 59
Width: 194
VWidth: 0
Flags: HW
LayerCount: 3
Fore
SplineSet
47 262 m 0
 47 290 69 312 97 312 c 0
 125 312 147 290 147 262 c 0
 147 234 125 212 97 212 c 0
 69 212 47 234 47 262 c 0
EndSplineSet
EndChar

StartChar: eight
Encoding: 56 56 60
Width: 194
VWidth: 0
Flags: HW
LayerCount: 3
Fore
SplineSet
47 262 m 0
 47 290 69 312 97 312 c 0
 125 312 147 290 147 262 c 0
 147 234 125 212 97 212 c 0
 69 212 47 234 47 262 c 0
EndSplineSet
EndChar

StartChar: nine
Encoding: 57 57 61
Width: 194
VWidth: 0
Flags: HW
LayerCount: 3
Fore
SplineSet
47 262 m 0
 47 290 69 312 97 312 c 0
 125 312 147 290 147 262 c 0
 147 234 125 212 97 212 c 0
 69 212 47 234 47 262 c 0
EndSplineSet
EndChar

